<svg width="467" height="227" viewBox="0 0 467 227" fill="none" xmlns="http://www.w3.org/2000/svg">
<path d="M12.212 86.74C12.212 90.1133 12.6886 92.57 13.642 94.11C14.5953 95.5767 16.0986 96.31 18.152 96.31C23.2853 96.31 26.7686 94.22 28.602 90.04C30.5086 85.86 31.462 80.14 31.462 72.88C31.462 69.36 31.242 64.4467 30.802 58.14C30.362 52.1267 30.142 47.6533 30.142 44.72C22.2953 44.72 18.372 43.18 18.372 40.1C18.372 38.2667 18.6653 37.0567 19.252 36.47C19.912 35.8833 20.902 35.59 22.222 35.59C23.0286 35.59 23.9086 35.6633 24.862 35.81C25.8153 35.8833 26.512 35.92 26.952 35.92C28.4186 36.14 29.812 36.25 31.132 36.25C33.552 36.25 35.7886 36.14 37.842 35.92C40.482 35.7733 42.462 35.7 43.782 35.7C46.422 35.7 48.2553 35.9567 49.282 36.47C50.382 36.9833 50.932 37.9733 50.932 39.44C50.932 40.98 50.5286 42.08 49.722 42.74C48.9886 43.3267 47.8886 43.7667 46.422 44.06L41.362 44.61C41.2886 49.45 41.582 55.2433 42.242 61.99C42.3153 63.0167 42.462 64.96 42.682 67.82C42.902 70.6067 43.012 73.1733 43.012 75.52C43.012 85.0533 40.9953 92.4233 36.962 97.63C32.9286 102.763 26.9153 105.33 18.922 105.33C13.9353 105.33 9.75529 103.9 6.38195 101.04C3.08195 98.1067 1.43195 93.7433 1.43195 87.95C1.43195 86.3367 2.01862 85.0533 3.19195 84.1C4.36529 83.0733 5.94195 82.56 7.92195 82.56C9.31529 82.56 10.3786 83.0367 11.112 83.99C11.8453 84.9433 12.212 85.86 12.212 86.74ZM100.954 69.69C101.541 70.7167 102.018 72.22 102.384 74.2C102.751 76.1067 102.934 77.83 102.934 79.37C102.934 82.23 102.311 86.3 101.064 91.58C96.0045 100.82 88.5245 105.44 78.6245 105.44C74.9578 105.44 71.2178 104.23 67.4045 101.81C63.5911 99.39 60.9511 96.6033 59.4845 93.45C57.5045 87.1433 56.5145 83.1467 56.5145 81.46C56.5145 78.5267 57.1378 75.41 58.3845 72.11C59.7045 68.81 61.3545 65.95 63.3345 63.53C64.5811 61.8433 66.8178 60.4133 70.0445 59.24C73.2711 57.9933 76.2045 57.37 78.8445 57.37C83.9778 57.37 88.3411 58.36 91.9345 60.34C95.5278 62.2467 98.5345 65.3633 100.954 69.69ZM91.3845 87.4C91.7511 86.4467 91.9345 83.99 91.9345 80.03C91.9345 77.9033 91.5311 75.8133 90.7245 73.76C89.9911 71.7067 88.8911 69.9467 87.4245 68.48C87.2778 68.3333 86.8745 68.1133 86.2145 67.82C85.5545 67.4533 84.6378 67.1233 83.4645 66.83C82.3645 66.4633 81.0811 66.28 79.6145 66.28C75.5078 66.28 72.5011 67.93 70.5945 71.23C68.6878 74.53 67.7345 78.27 67.7345 82.45C67.7345 83.1833 67.9178 84.5767 68.2845 86.63C68.7245 88.6833 69.0911 89.9667 69.3845 90.48C69.6045 90.9933 70.1545 91.7267 71.0345 92.68C71.9878 93.56 73.1245 94.3667 74.4445 95.1C75.8378 95.76 77.2678 96.09 78.7345 96.09C82.0345 96.09 84.6745 95.32 86.6545 93.78C88.6345 92.1667 90.2111 90.04 91.3845 87.4ZM122.154 105.44C120.687 105.44 119.44 105.183 118.414 104.67C117.387 104.157 116.764 103.607 116.544 103.02C115.737 100.087 115.334 96.2367 115.334 91.47C115.334 82.67 115.48 75.52 115.774 70.02C116.067 63.4933 116.214 57.2233 116.214 51.21C116.214 49.45 115.994 46.8833 115.554 43.51C115.48 42.9233 115.37 41.86 115.224 40.32C115.077 38.78 115.004 37.35 115.004 36.03C115.004 34.4167 115.554 33.1333 116.654 32.18C117.827 31.2267 119.33 30.75 121.164 30.75C122.63 30.75 123.804 31.2267 124.684 32.18C125.637 33.06 126.114 34.27 126.114 35.81C126.114 38.1567 126.187 41.4567 126.334 45.71C126.48 49.67 126.554 52.64 126.554 54.62C126.554 56.82 126.48 59.7533 126.334 63.42C126.187 65.62 126.114 67.2333 126.114 68.26C126.114 71.4867 126.15 74.1633 126.224 76.29C128.937 73.5767 132.494 70.3867 136.894 66.72C141.294 63.0533 144.704 60.4867 147.124 59.02C149.69 57.48 151.377 56.71 152.184 56.71C153.724 56.71 155.044 57.04 156.144 57.7C157.244 58.36 157.794 59.3133 157.794 60.56C157.794 61.8067 157.61 62.7967 157.244 63.53C156.877 64.2633 156.217 64.9967 155.264 65.73L141.074 76.07C142.687 76.8767 144.044 77.9033 145.144 79.15C146.317 80.3967 147.49 81.9367 148.664 83.77C151.157 87.8767 153.137 90.8833 154.604 92.79C156.144 94.6967 157.537 95.65 158.784 95.65L161.534 95.54C162.047 95.54 162.487 95.8333 162.854 96.42C163.294 97.0067 163.514 97.85 163.514 98.95C163.514 100.637 162.67 101.993 160.984 103.02C159.37 104.047 157.537 104.56 155.484 104.56C152.624 104.56 150.094 103.46 147.894 101.26C145.694 98.9867 143.604 95.9433 141.624 92.13C138.764 86.7033 135.94 83.4767 133.154 82.45L126.114 88.17L126.554 100.16C126.554 102.067 126.04 103.423 125.014 104.23C124.06 105.037 123.107 105.44 122.154 105.44ZM213.85 69.69C214.436 70.7167 214.913 72.22 215.28 74.2C215.646 76.1067 215.83 77.83 215.83 79.37C215.83 81.35 215.61 83.55 215.17 85.97C214.73 88.39 214.326 90.26 213.96 91.58C208.9 100.82 201.42 105.44 191.52 105.44C187.853 105.44 184.113 104.23 180.3 101.81C176.486 99.39 173.846 96.6033 172.38 93.45C170.4 87.2167 169.41 83.22 169.41 81.46C169.41 78.5267 170.033 75.41 171.28 72.11C172.6 68.81 174.25 65.95 176.23 63.53C177.55 61.8433 179.823 60.4133 183.05 59.24C186.276 57.9933 189.21 57.37 191.85 57.37C196.983 57.37 201.31 58.36 204.83 60.34C208.423 62.2467 211.43 65.3633 213.85 69.69ZM204.28 87.4C204.646 86.6667 204.83 84.21 204.83 80.03C204.83 77.9033 204.426 75.8133 203.62 73.76C202.886 71.7067 201.786 69.9467 200.32 68.48C200.173 68.3333 199.77 68.1133 199.11 67.82C198.45 67.4533 197.533 67.1233 196.36 66.83C195.26 66.4633 193.976 66.28 192.51 66.28C188.403 66.28 185.396 67.93 183.49 71.23C181.583 74.53 180.63 78.27 180.63 82.45C180.63 83.11 180.85 84.4667 181.29 86.52C181.73 88.5733 182.06 89.8933 182.28 90.48C182.866 91.5067 184.04 92.7167 185.8 94.11C187.633 95.43 189.613 96.09 191.74 96.09C195.04 96.09 197.643 95.32 199.55 93.78C201.53 92.1667 203.106 90.04 204.28 87.4Z" fill="#FBFCFD"/>
<path d="M291.929 35.48C292.956 35.48 294.202 36.1767 295.669 37.57C297.209 38.89 297.979 40.0267 297.979 40.98C297.979 45.4533 297.832 51.5767 297.539 59.35C297.466 61.2567 297.392 63.5667 297.319 66.28C297.246 68.92 297.209 72 297.209 75.52C297.209 86.6667 297.869 94.88 299.189 100.16C299.116 101.92 298.419 103.203 297.099 104.01C295.779 104.743 294.459 105.11 293.139 105.11C290.206 105.11 288.262 104.083 287.309 102.03C286.429 99.9767 285.989 97.0433 285.989 93.23C285.989 79.0767 286.136 66.06 286.429 54.18C277.996 63.5667 271.432 71.45 266.739 77.83C266.739 77.83 266.079 78.27 264.759 79.15C263.512 80.25 262.486 80.8 261.679 80.8C259.772 80.8 258.196 80.3233 256.949 79.37C255.702 78.4167 254.492 77.0233 253.319 75.19L248.039 67.71C244.372 62.5767 241.696 58.69 240.009 56.05C240.009 62.7967 240.339 71.9633 240.999 83.55C241.512 90.2233 241.769 95.2467 241.769 98.62C241.769 100.38 241.329 101.883 240.449 103.13C239.569 104.303 238.176 104.89 236.269 104.89C234.362 104.89 232.786 104.523 231.539 103.79C230.366 103.057 229.742 101.957 229.669 100.49C229.742 99.2433 229.779 97.19 229.779 94.33C229.779 88.61 229.596 81.6433 229.229 73.43L229.009 67.49L228.789 59.79C228.716 57.5167 228.642 54.8767 228.569 51.87C228.496 48.79 228.459 45.4533 228.459 41.86C228.459 37.46 230.842 35.26 235.609 35.26C237.076 35.26 238.542 35.6267 240.009 36.36C241.549 37.0933 242.686 38.1567 243.419 39.55C244.006 42.1167 246.169 46.37 249.909 52.31C253.649 58.25 257.316 63.8233 260.909 69.03C264.136 64.9233 266.776 61.8433 268.829 59.79C272.349 56.1967 275.246 52.86 277.519 49.78C279.866 46.7 282.396 42.9967 285.109 38.67C285.769 37.79 286.722 37.0567 287.969 36.47C289.216 35.81 290.536 35.48 291.929 35.48ZM403.245 100.6C403.245 101.847 402.768 102.947 401.815 103.9C400.861 104.853 399.688 105.33 398.295 105.33C396.095 105.33 394.481 104.927 393.455 104.12C392.428 103.24 391.915 101.663 391.915 99.39C391.915 96.6767 391.841 93.12 391.695 88.72C391.548 85.0533 391.475 81.9733 391.475 79.48C391.475 78.3067 391.548 76.7667 391.695 74.86C391.841 73.1 391.915 71.78 391.915 70.9C391.695 69.5067 391.145 68.37 390.265 67.49C389.385 66.5367 388.248 66.06 386.855 66.06C386.195 66.06 385.645 65.7667 385.205 65.18C384.765 64.52 384.545 63.86 384.545 63.2C384.545 61.5133 385.205 60.23 386.525 59.35C387.918 58.47 389.568 58.03 391.475 58.03C395.435 58.03 398.185 60.3767 399.725 65.07C401.631 62.87 403.795 61.11 406.215 59.79C408.708 58.3967 411.091 57.7 413.365 57.7C416.078 57.7 418.535 58.4333 420.735 59.9C423.008 61.3667 424.145 63.3467 424.145 65.84C424.145 67.2333 423.521 68.6633 422.275 70.13C421.101 71.5967 419.891 72.33 418.645 72.33C417.985 72.33 417.398 72.1833 416.885 71.89C416.445 71.5233 415.895 71.01 415.235 70.35C414.501 69.6167 413.878 69.1033 413.365 68.81C412.851 68.4433 412.265 68.26 411.605 68.26C410.431 68.26 409.331 68.4433 408.305 68.81C407.278 69.1767 406.581 69.6167 406.215 70.13C405.041 71.9633 404.161 73.6133 403.575 75.08C403.061 76.5467 402.805 78.1233 402.805 79.81C402.805 81.0567 402.768 82.0467 402.695 82.78L402.585 89.05C402.585 90.0033 402.621 91.0667 402.695 92.24C402.768 93.4133 402.841 94.2933 402.915 94.88C403.135 96.86 403.245 98.7667 403.245 100.6ZM430.685 66.72C429.659 66.5733 428.815 66.17 428.155 65.51C427.569 64.7767 427.275 63.8967 427.275 62.87C427.275 61.55 427.789 60.45 428.815 59.57C429.035 59.35 429.402 59.1667 429.915 59.02C430.429 58.8 430.832 58.6167 431.125 58.47C432.739 57.9567 433.765 57.5533 434.205 57.26C435.892 56.2333 437.029 54.5467 437.615 52.2C438.202 49.4133 438.569 47.5067 438.715 46.48C438.862 44.8667 439.375 43.6567 440.255 42.85C441.209 41.97 442.382 41.53 443.775 41.53C445.609 41.53 446.892 42.0067 447.625 42.96C448.359 43.9133 448.725 45.6733 448.725 48.24C448.725 51.6133 447.919 54.8033 446.305 57.81C447.332 57.81 449.019 57.7367 451.365 57.59C454.885 57.4433 457.342 57.37 458.735 57.37C459.982 57.37 461.045 57.7 461.925 58.36C462.879 58.9467 463.355 59.8267 463.355 61C463.355 63.7867 462.072 65.4367 459.505 65.95C457.159 66.61 452.905 67.0133 446.745 67.16C446.232 74.3467 445.975 80.03 445.975 84.21C445.975 86.7767 446.085 88.61 446.305 89.71C446.745 91.9833 447.479 93.67 448.505 94.77C449.605 95.7967 451.219 96.31 453.345 96.31C454.372 96.31 455.912 96.0533 457.965 95.54C459.212 95.1733 460.202 94.99 460.935 94.99C461.889 94.99 462.622 95.32 463.135 95.98C463.649 96.64 463.905 97.52 463.905 98.62C463.905 100.6 462.622 102.25 460.055 103.57C457.489 104.817 454.445 105.44 450.925 105.44C448.725 105.44 446.562 104.927 444.435 103.9C442.309 102.8 440.512 101.48 439.045 99.94C438.752 99.7933 438.312 98.9867 437.725 97.52C437.212 96.0533 436.699 94.44 436.185 92.68C435.965 91.8 435.855 89.6733 435.855 86.3C435.855 83.0733 436.075 77.5 436.515 69.58L436.625 67.16C436.112 67.16 435.159 67.1233 433.765 67.05C432.372 66.9033 431.345 66.7933 430.685 66.72Z" fill="white"/>
<path d="M311.334 41C310.715 41 310.121 41.2634 309.683 41.7322C309.246 42.2011 309 42.837 309 43.5C309 44.163 309.246 44.7989 309.683 45.2678C310.121 45.7366 310.715 46 311.334 46H315.646C316.175 46 316.635 46.38 316.772 46.9267L324.731 78.9C322.231 79.5978 320.018 81.1641 318.438 83.3537C316.859 85.5433 316.001 88.2325 316.001 91C316.001 92.38 317.046 93.5 318.334 93.5H367.339C367.958 93.5 368.551 93.2366 368.989 92.7678C369.426 92.2989 369.672 91.663 369.672 91C369.672 90.337 369.426 89.7011 368.989 89.2322C368.551 88.7634 367.958 88.5 367.339 88.5H321.066C321.549 87.0374 322.443 85.7711 323.625 84.8756C324.808 83.9801 326.22 83.4995 327.668 83.5H362.572C363.009 83.5 363.438 83.3685 363.808 83.1203C364.179 82.8722 364.477 82.5175 364.669 82.0967C368.221 74.287 371.298 66.239 373.879 58.0033C373.981 57.6775 374.019 57.3327 373.991 56.9904C373.963 56.6481 373.87 56.3156 373.716 56.0138C373.563 55.7119 373.353 55.4472 373.1 55.236C372.847 55.0249 372.556 54.8719 372.245 54.7867C355.835 50.3038 338.938 48.1995 322.006 48.53L321.284 45.64C320.953 44.3091 320.22 43.1327 319.201 42.2937C318.181 41.4546 316.932 40.9998 315.646 41H311.334ZM316.001 101C316.001 99.6739 316.492 98.4021 317.368 97.4645C318.243 96.5268 319.43 96 320.668 96C321.906 96 323.093 96.5268 323.968 97.4645C324.843 98.4021 325.335 99.6739 325.335 101C325.335 102.326 324.843 103.598 323.968 104.536C323.093 105.473 321.906 106 320.668 106C319.43 106 318.243 105.473 317.368 104.536C316.492 103.598 316.001 102.326 316.001 101ZM355.671 101C355.671 99.6739 356.163 98.4021 357.038 97.4645C357.913 96.5268 359.1 96 360.338 96C361.576 96 362.763 96.5268 363.638 97.4645C364.513 98.4021 365.005 99.6739 365.005 101C365.005 102.326 364.513 103.598 363.638 104.536C362.763 105.473 361.576 106 360.338 106C359.1 106 357.913 105.473 357.038 104.536C356.163 103.598 355.671 102.326 355.671 101Z" fill="white"/>
</svg>
