<svg width="118" height="108" viewBox="0 0 118 108" fill="none" xmlns="http://www.w3.org/2000/svg">
<g filter="url(#filter0_dd_1505_30812)">
<path d="M9 2H109V42C109 69.6142 86.6142 92 59 92V92C31.3858 92 9 69.6142 9 42V2Z" fill="#6F8A6E" shape-rendering="crispEdges"/>
<path d="M53.6353 54.36C53.6353 55.5867 53.8086 56.48 54.1553 57.04C54.502 57.5733 55.0486 57.84 55.7953 57.84C57.662 57.84 58.9286 57.08 59.5953 55.56C60.2886 54.04 60.6353 51.96 60.6353 49.32C60.6353 48.04 60.5553 46.2533 60.3953 43.96C60.2353 41.7733 60.1553 40.1467 60.1553 39.08C57.302 39.08 55.8753 38.52 55.8753 37.4C55.8753 36.7333 55.982 36.2933 56.1953 36.08C56.4353 35.8667 56.7953 35.76 57.2753 35.76C57.5686 35.76 57.8886 35.7867 58.2353 35.84C58.582 35.8667 58.8353 35.88 58.9953 35.88C59.5286 35.96 60.0353 36 60.5153 36C61.3953 36 62.2086 35.96 62.9553 35.88C63.9153 35.8267 64.6353 35.8 65.1153 35.8C66.0753 35.8 66.742 35.8933 67.1153 36.08C67.5153 36.2667 67.7153 36.6267 67.7153 37.16C67.7153 37.72 67.5686 38.12 67.2753 38.36C67.0086 38.5733 66.6086 38.7333 66.0753 38.84L64.2353 39.04C64.2086 40.8 64.3153 42.9067 64.5553 45.36C64.582 45.7333 64.6353 46.44 64.7153 47.48C64.7953 48.4933 64.8353 49.4267 64.8353 50.28C64.8353 53.7467 64.102 56.4267 62.6353 58.32C61.1686 60.1867 58.982 61.12 56.0753 61.12C54.262 61.12 52.742 60.6 51.5153 59.56C50.3153 58.4933 49.7153 56.9067 49.7153 54.8C49.7153 54.2133 49.9286 53.7467 50.3553 53.4C50.782 53.0267 51.3553 52.84 52.0753 52.84C52.582 52.84 52.9686 53.0133 53.2353 53.36C53.502 53.7067 53.6353 54.04 53.6353 54.36Z" fill="#FBFCFD"/>
</g>
<defs>
<filter id="filter0_dd_1505_30812" x="0.7" y="0.61" width="116.6" height="106.6" filterUnits="userSpaceOnUse" color-interpolation-filters="sRGB">
<feFlood flood-opacity="0" result="BackgroundImageFix"/>
<feColorMatrix in="SourceAlpha" type="matrix" values="0 0 0 0 0 0 0 0 0 0 0 0 0 0 0 0 0 0 127 0" result="hardAlpha"/>
<feMorphology radius="1.38" operator="erode" in="SourceAlpha" result="effect1_dropShadow_1505_30812"/>
<feOffset dy="2.76"/>
<feGaussianBlur stdDeviation="2.075"/>
<feComposite in2="hardAlpha" operator="out"/>
<feColorMatrix type="matrix" values="0 0 0 0 0 0 0 0 0 0 0 0 0 0 0 0 0 0 0.05 0"/>
<feBlend mode="normal" in2="BackgroundImageFix" result="effect1_dropShadow_1505_30812"/>
<feColorMatrix in="SourceAlpha" type="matrix" values="0 0 0 0 0 0 0 0 0 0 0 0 0 0 0 0 0 0 127 0" result="hardAlpha"/>
<feMorphology radius="2.07" operator="erode" in="SourceAlpha" result="effect2_dropShadow_1505_30812"/>
<feOffset dy="6.91"/>
<feGaussianBlur stdDeviation="5.185"/>
<feComposite in2="hardAlpha" operator="out"/>
<feColorMatrix type="matrix" values="0 0 0 0 0 0 0 0 0 0 0 0 0 0 0 0 0 0 0.1 0"/>
<feBlend mode="normal" in2="effect1_dropShadow_1505_30812" result="effect2_dropShadow_1505_30812"/>
<feBlend mode="normal" in="SourceGraphic" in2="effect2_dropShadow_1505_30812" result="shape"/>
</filter>
</defs>
</svg>
