<svg width="68" height="72" viewBox="0 0 68 72" fill="none" xmlns="http://www.w3.org/2000/svg">
<g clip-path="url(#clip0_1185_55384)">
<path d="M34.0002 24.3335C27.5602 24.3335 22.3335 29.5602 22.3335 36.0002C22.3335 42.4402 27.5602 47.6668 34.0002 47.6668C40.4402 47.6668 45.6668 42.4402 45.6668 36.0002C45.6668 29.5602 40.4402 24.3335 34.0002 24.3335ZM35.6452 43.1052V43.7818C35.6452 44.6335 34.9452 45.3335 34.0935 45.3335H34.0818C33.2302 45.3335 32.5302 44.6335 32.5302 43.7818V43.0818C30.9785 42.7552 29.6018 41.9035 29.0185 40.4685C28.7502 39.8268 29.2518 39.1152 29.9518 39.1152H30.2318C30.6635 39.1152 31.0135 39.4068 31.1768 39.8152C31.5152 40.6902 32.4018 41.2968 34.1052 41.2968C36.3918 41.2968 36.9052 40.1535 36.9052 39.4418C36.9052 38.4735 36.3918 37.5635 33.7902 36.9452C30.8968 36.2452 28.9135 35.0552 28.9135 32.6635C28.9135 30.6568 30.5352 29.3502 32.5418 28.9185V28.2185C32.5418 27.3668 33.2418 26.6668 34.0935 26.6668H34.1052C34.9568 26.6668 35.6568 27.3668 35.6568 28.2185V28.9418C37.2668 29.3385 38.2818 30.3418 38.7252 31.5785C38.9585 32.2202 38.4685 32.8968 37.7802 32.8968H37.4768C37.0452 32.8968 36.6952 32.5935 36.5785 32.1735C36.3102 31.2868 35.5752 30.7152 34.1052 30.7152C32.3552 30.7152 31.3052 31.5085 31.3052 32.6285C31.3052 33.6085 32.0635 34.2502 34.4202 34.8568C36.7768 35.4635 39.2968 36.4785 39.2968 39.4185C39.2735 41.5535 37.6752 42.7202 35.6452 43.1052Z" fill="#FBFCFD"/>
</g>
<defs>
<clipPath id="clip0_1185_55384">
<rect width="28" height="28" fill="white" transform="translate(20 22)"/>
</clipPath>
</defs>
</svg>
