<svg width="60" height="60" viewBox="0 0 60 60" fill="none" xmlns="http://www.w3.org/2000/svg">
<path d="M30 52.5C34.9875 52.4997 39.8337 50.843 43.7776 47.7901C47.7215 44.7371 50.5398 40.4608 51.79 35.6325M30 52.5C25.0125 52.4997 20.1664 50.843 16.2224 47.7901C12.2785 44.7371 9.4602 40.4608 8.21001 35.6325M30 52.5C36.2125 52.5 41.25 42.425 41.25 30C41.25 17.575 36.2125 7.5 30 7.5M30 52.5C23.7875 52.5 18.75 42.425 18.75 30C18.75 17.575 23.7875 7.5 30 7.5M30 7.5C33.9906 7.49834 37.9098 8.5584 41.3555 10.5714C44.8012 12.5844 47.6492 15.4779 49.6075 18.955M30 7.5C26.0094 7.49834 22.0902 8.5584 18.6445 10.5714C15.1989 12.5844 12.3508 15.4779 10.3925 18.955M49.6075 18.955C44.1642 23.6698 37.2013 26.2604 30 26.25C22.505 26.25 15.65 23.5 10.3925 18.955M49.6075 18.955C51.5096 22.325 52.5062 26.1303 52.5 30C52.5 31.945 52.2525 33.8325 51.79 35.6325M51.79 35.6325C45.1229 39.3285 37.623 41.262 30 41.25C22.095 41.25 14.6675 39.2125 8.21001 35.6325M8.21001 35.6325C7.73688 33.7924 7.49832 31.8999 7.50001 30C7.50001 25.9875 8.55001 22.2175 10.3925 18.955" stroke="#6F8A6E" stroke-width="4" stroke-linecap="round" stroke-linejoin="round"/>
</svg>
