<svg width="60" height="60" viewBox="0 0 60 60" fill="none" xmlns="http://www.w3.org/2000/svg">
<path d="M52.5 28.125V48.75C52.5 49.7446 52.1049 50.6984 51.4016 51.4017C50.6984 52.1049 49.7446 52.5 48.75 52.5H13.125C12.1304 52.5 11.1766 52.1049 10.4733 51.4017C9.77009 50.6984 9.375 49.7446 9.375 48.75V28.125M30 12.1875C30 10.8896 29.6151 9.62077 28.894 8.54157C28.1729 7.46238 27.148 6.62124 25.9489 6.12454C24.7497 5.62784 23.4302 5.49788 22.1572 5.7511C20.8842 6.00432 19.7149 6.62933 18.7971 7.54711C17.8793 8.4649 17.2543 9.63422 17.0011 10.9072C16.7479 12.1802 16.8778 13.4997 17.3745 14.6989C17.8712 15.898 18.7124 16.9229 19.7916 17.644C20.8708 18.3651 22.1396 18.75 23.4375 18.75H30M30 12.1875V18.75M30 12.1875C30 10.8896 30.3849 9.62077 31.106 8.54157C31.8271 7.46238 32.852 6.62124 34.0511 6.12454C35.2503 5.62784 36.5698 5.49788 37.8428 5.7511C39.1158 6.00432 40.2851 6.62933 41.2029 7.54711C42.1207 8.4649 42.7457 9.63422 42.9989 10.9072C43.2521 12.1802 43.1222 13.4997 42.6255 14.6989C42.1288 15.898 41.2876 16.9229 40.2084 17.644C39.1292 18.3651 37.8604 18.75 36.5625 18.75H30M30 18.75V52.5M8.4375 28.125H53.4375C54.99 28.125 56.25 26.865 56.25 25.3125V21.5625C56.25 20.01 54.99 18.75 53.4375 18.75H8.4375C6.885 18.75 5.625 20.01 5.625 21.5625V25.3125C5.625 26.865 6.885 28.125 8.4375 28.125Z" stroke="#6F8A6E" stroke-width="4" stroke-linecap="round" stroke-linejoin="round"/>
</svg>
