<svg width="153" height="43" viewBox="0 0 153 43" fill="none" xmlns="http://www.w3.org/2000/svg">
<path d="M4.20694 28.024C4.20694 29.128 4.36294 29.932 4.67494 30.436C4.98694 30.916 5.47894 31.156 6.15094 31.156C7.83094 31.156 8.97094 30.472 9.57094 29.104C10.1949 27.736 10.5069 25.864 10.5069 23.488C10.5069 22.336 10.4349 20.728 10.2909 18.664C10.1469 16.696 10.0749 15.232 10.0749 14.272C7.50694 14.272 6.22294 13.768 6.22294 12.76C6.22294 12.16 6.31894 11.764 6.51094 11.572C6.72694 11.38 7.05094 11.284 7.48294 11.284C7.74694 11.284 8.03494 11.308 8.34694 11.356C8.65894 11.38 8.88694 11.392 9.03094 11.392C9.51094 11.464 9.96694 11.5 10.3989 11.5C11.1909 11.5 11.9229 11.464 12.5949 11.392C13.4589 11.344 14.1069 11.32 14.5389 11.32C15.4029 11.32 16.0029 11.404 16.3389 11.572C16.6989 11.74 16.8789 12.064 16.8789 12.544C16.8789 13.048 16.7469 13.408 16.4829 13.624C16.2429 13.816 15.8829 13.96 15.4029 14.056L13.7469 14.236C13.7229 15.82 13.8189 17.716 14.0349 19.924C14.0589 20.26 14.1069 20.896 14.1789 21.832C14.2509 22.744 14.2869 23.584 14.2869 24.352C14.2869 27.472 13.6269 29.884 12.3069 31.588C10.9869 33.268 9.01894 34.108 6.40294 34.108C4.77094 34.108 3.40294 33.64 2.29894 32.704C1.21894 31.744 0.678938 30.316 0.678938 28.42C0.678938 27.892 0.870938 27.472 1.25494 27.16C1.63894 26.824 2.15494 26.656 2.80294 26.656C3.25894 26.656 3.60694 26.812 3.84694 27.124C4.08694 27.436 4.20694 27.736 4.20694 28.024ZM33.2499 22.444C33.4419 22.78 33.5979 23.272 33.7179 23.92C33.8379 24.544 33.8979 25.108 33.8979 25.612C33.8979 26.548 33.6939 27.88 33.2859 29.608C31.6299 32.632 29.1819 34.144 25.9419 34.144C24.7419 34.144 23.5179 33.748 22.2699 32.956C21.0219 32.164 20.1579 31.252 19.6779 30.22C19.0299 28.156 18.7059 26.848 18.7059 26.296C18.7059 25.336 18.9099 24.316 19.3179 23.236C19.7499 22.156 20.2899 21.22 20.9379 20.428C21.3459 19.876 22.0779 19.408 23.1339 19.024C24.1899 18.616 25.1499 18.412 26.0139 18.412C27.6939 18.412 29.1219 18.736 30.2979 19.384C31.4739 20.008 32.4579 21.028 33.2499 22.444ZM30.1179 28.24C30.2379 27.928 30.2979 27.124 30.2979 25.828C30.2979 25.132 30.1659 24.448 29.9019 23.776C29.6619 23.104 29.3019 22.528 28.8219 22.048C28.7739 22 28.6419 21.928 28.4259 21.832C28.2099 21.712 27.9099 21.604 27.5259 21.508C27.1659 21.388 26.7459 21.328 26.2659 21.328C24.9219 21.328 23.9379 21.868 23.3139 22.948C22.6899 24.028 22.3779 25.252 22.3779 26.62C22.3779 26.86 22.4379 27.316 22.5579 27.988C22.7019 28.66 22.8219 29.08 22.9179 29.248C22.9899 29.416 23.1699 29.656 23.4579 29.968C23.7699 30.256 24.1419 30.52 24.5739 30.76C25.0299 30.976 25.4979 31.084 25.9779 31.084C27.0579 31.084 27.9219 30.832 28.5699 30.328C29.2179 29.8 29.7339 29.104 30.1179 28.24ZM40.1878 34.144C39.7078 34.144 39.2998 34.06 38.9638 33.892C38.6278 33.724 38.4238 33.544 38.3518 33.352C38.0878 32.392 37.9558 31.132 37.9558 29.572C37.9558 26.692 38.0038 24.352 38.0998 22.552C38.1958 20.416 38.2438 18.364 38.2438 16.396C38.2438 15.82 38.1718 14.98 38.0278 13.876C38.0038 13.684 37.9678 13.336 37.9198 12.832C37.8718 12.328 37.8478 11.86 37.8478 11.428C37.8478 10.9 38.0278 10.48 38.3878 10.168C38.7718 9.856 39.2638 9.7 39.8638 9.7C40.3438 9.7 40.7278 9.856 41.0158 10.168C41.3278 10.456 41.4838 10.852 41.4838 11.356C41.4838 12.124 41.5078 13.204 41.5558 14.596C41.6038 15.892 41.6278 16.864 41.6278 17.512C41.6278 18.232 41.6038 19.192 41.5558 20.392C41.5078 21.112 41.4838 21.64 41.4838 21.976C41.4838 23.032 41.4958 23.908 41.5198 24.604C42.4078 23.716 43.5718 22.672 45.0118 21.472C46.4518 20.272 47.5678 19.432 48.3598 18.952C49.1998 18.448 49.7518 18.196 50.0158 18.196C50.5198 18.196 50.9518 18.304 51.3118 18.52C51.6718 18.736 51.8518 19.048 51.8518 19.456C51.8518 19.864 51.7918 20.188 51.6718 20.428C51.5518 20.668 51.3358 20.908 51.0238 21.148L46.3798 24.532C46.9078 24.796 47.3518 25.132 47.7118 25.54C48.0958 25.948 48.4798 26.452 48.8638 27.052C49.6798 28.396 50.3278 29.38 50.8078 30.004C51.3118 30.628 51.7678 30.94 52.1758 30.94L53.0758 30.904C53.2438 30.904 53.3878 31 53.5078 31.192C53.6518 31.384 53.7238 31.66 53.7238 32.02C53.7238 32.572 53.4478 33.016 52.8958 33.352C52.3678 33.688 51.7678 33.856 51.0958 33.856C50.1598 33.856 49.3318 33.496 48.6118 32.776C47.8918 32.032 47.2078 31.036 46.5598 29.788C45.6238 28.012 44.6998 26.956 43.7878 26.62L41.4838 28.492L41.6278 32.416C41.6278 33.04 41.4598 33.484 41.1238 33.748C40.8118 34.012 40.4998 34.144 40.1878 34.144ZM70.1975 22.444C70.3895 22.78 70.5455 23.272 70.6655 23.92C70.7855 24.544 70.8455 25.108 70.8455 25.612C70.8455 26.26 70.7735 26.98 70.6295 27.772C70.4855 28.564 70.3535 29.176 70.2335 29.608C68.5775 32.632 66.1295 34.144 62.8895 34.144C61.6895 34.144 60.4655 33.748 59.2175 32.956C57.9695 32.164 57.1055 31.252 56.6255 30.22C55.9775 28.18 55.6535 26.872 55.6535 26.296C55.6535 25.336 55.8575 24.316 56.2655 23.236C56.6975 22.156 57.2375 21.22 57.8855 20.428C58.3175 19.876 59.0615 19.408 60.1175 19.024C61.1735 18.616 62.1335 18.412 62.9975 18.412C64.6775 18.412 66.0935 18.736 67.2455 19.384C68.4215 20.008 69.4055 21.028 70.1975 22.444ZM67.0655 28.24C67.1855 28 67.2455 27.196 67.2455 25.828C67.2455 25.132 67.1135 24.448 66.8495 23.776C66.6095 23.104 66.2495 22.528 65.7695 22.048C65.7215 22 65.5895 21.928 65.3735 21.832C65.1575 21.712 64.8575 21.604 64.4735 21.508C64.1135 21.388 63.6935 21.328 63.2135 21.328C61.8695 21.328 60.8855 21.868 60.2615 22.948C59.6375 24.028 59.3255 25.252 59.3255 26.62C59.3255 26.836 59.3975 27.28 59.5415 27.952C59.6855 28.624 59.7935 29.056 59.8655 29.248C60.0575 29.584 60.4415 29.98 61.0175 30.436C61.6175 30.868 62.2655 31.084 62.9615 31.084C64.0415 31.084 64.8935 30.832 65.5175 30.328C66.1655 29.8 66.6815 29.104 67.0655 28.24ZM98.4867 13.048C98.4867 14.488 98.4387 16.504 98.3427 19.096C98.3187 19.72 98.2947 20.476 98.2707 21.364C98.2467 22.228 98.2347 23.236 98.2347 24.388C98.2347 28.156 98.4387 30.856 98.8467 32.488C98.8227 33.088 98.5947 33.52 98.1627 33.784C97.7307 34.024 97.2867 34.144 96.8307 34.144C95.8947 34.144 95.2707 33.808 94.9587 33.136C94.6707 32.44 94.5267 31.468 94.5267 30.22C94.5267 25.588 94.5987 21.304 94.7427 17.368C94.2867 18.28 93.8547 19.288 93.4467 20.392C93.0627 21.472 92.5467 22.984 91.8987 24.928C91.2267 27.04 90.6507 28.708 90.1707 29.932C89.7147 31.156 89.2347 32.104 88.7307 32.776C88.5867 32.848 88.2987 32.992 87.8667 33.208C87.4587 33.4 87.0987 33.496 86.7867 33.496C86.2827 33.496 85.9227 33.412 85.7067 33.244C85.4907 33.076 85.2987 32.836 85.1307 32.524C84.9627 32.212 84.8187 31.96 84.6987 31.768C84.3147 31.192 83.8227 30.244 83.2227 28.924C82.6227 27.604 82.0707 26.224 81.5667 24.784C81.3747 24.28 81.1947 23.8 81.0267 23.344C80.8827 22.864 80.7387 22.42 80.5947 22.012C80.3067 21.148 80.0187 20.344 79.7307 19.6C79.4667 18.832 79.2387 18.292 79.0467 17.98C79.0467 19.252 79.0107 20.524 78.9387 21.796C78.8907 23.332 78.8667 24.436 78.8667 25.108C78.8667 25.588 78.8907 26.236 78.9387 27.052C79.0827 29.548 79.1547 31.192 79.1547 31.984C79.1547 32.56 79.0107 33.052 78.7227 33.46C78.4347 33.868 77.9907 34.072 77.3907 34.072C76.7427 34.072 76.2147 33.952 75.8067 33.712C75.4227 33.448 75.2187 33.064 75.1947 32.56C75.2187 32.152 75.2307 31.492 75.2307 30.58C75.2307 28.732 75.1587 25.792 75.0147 21.76L74.9787 20.464C74.9787 19.552 75.0267 18.256 75.1227 16.576C75.1467 16.168 75.1707 15.688 75.1947 15.136C75.2187 14.584 75.2307 13.984 75.2307 13.336C75.2307 12.592 75.4827 12.052 75.9867 11.716C76.4907 11.356 77.1387 11.176 77.9307 11.176C78.4107 11.176 78.8907 11.296 79.3707 11.536C79.8747 11.776 80.2467 12.124 80.4867 12.58C80.9667 13.564 81.4467 14.728 81.9267 16.072C82.4067 17.392 83.0547 19.276 83.8707 21.724C84.6387 24.052 85.2507 25.828 85.7067 27.052C86.1627 28.252 86.5467 29.068 86.8587 29.5L87.6867 27.052C90.3987 18.772 92.2227 13.876 93.1587 12.364C93.3747 12.076 93.7467 11.824 94.2747 11.608C94.8267 11.368 95.3427 11.248 95.8227 11.248C96.1827 11.248 96.7107 11.476 97.4067 11.932C98.1267 12.364 98.4867 12.736 98.4867 13.048ZM127.736 21.364C127.112 20.932 126.8 20.476 126.8 19.996C126.8 19.66 126.944 19.348 127.232 19.06C127.52 18.772 127.952 18.628 128.528 18.628C129.2 18.628 129.8 18.808 130.328 19.168C130.88 19.504 131.264 19.996 131.48 20.644C132.032 19.996 132.656 19.48 133.352 19.096C134.072 18.712 134.804 18.52 135.548 18.52C136.436 18.52 137.24 18.76 137.96 19.24C138.68 19.72 139.04 20.368 139.04 21.184C139.04 21.64 138.836 22.108 138.428 22.588C138.044 23.068 137.648 23.308 137.24 23.308C137.024 23.308 136.832 23.26 136.664 23.164C136.52 23.044 136.34 22.876 136.124 22.66C135.884 22.42 135.68 22.252 135.512 22.156C135.344 22.036 135.152 21.976 134.936 21.976C134.552 21.976 134.192 22.036 133.856 22.156C133.52 22.276 133.292 22.42 133.172 22.588C132.788 23.188 132.5 23.728 132.308 24.208C132.14 24.688 132.056 25.204 132.056 25.756C132.056 26.164 132.044 26.488 132.02 26.728L131.984 28.78C131.984 29.092 131.996 29.44 132.02 29.824C132.044 30.208 132.068 30.496 132.092 30.688C132.164 31.336 132.2 31.96 132.2 32.56C132.2 32.968 132.044 33.328 131.732 33.64C131.42 33.952 131.036 34.108 130.58 34.108C129.86 34.108 129.332 33.976 128.996 33.712C128.66 33.424 128.492 32.908 128.492 32.164L128.456 29.86C128.432 29.404 128.42 28.756 128.42 27.916L128.456 25.54C128.504 24.388 128.528 23.452 128.528 22.732C128.528 22.468 128.468 22.228 128.348 22.012C128.252 21.796 128.048 21.58 127.736 21.364ZM141.234 21.544C140.898 21.496 140.622 21.352 140.406 21.112C140.214 20.872 140.118 20.584 140.118 20.248C140.118 20.08 140.154 19.9 140.226 19.708C140.322 19.516 140.454 19.348 140.622 19.204C140.934 18.94 141.354 18.688 141.882 18.448C142.434 18.232 142.83 17.968 143.07 17.656C143.31 17.344 143.43 16.756 143.43 15.892C143.43 15.532 143.406 15.22 143.358 14.956C143.334 14.692 143.322 14.488 143.322 14.344C143.322 13.816 143.514 13.42 143.898 13.156C144.282 12.892 144.726 12.76 145.23 12.76C145.854 12.76 146.274 12.916 146.49 13.228C146.73 13.54 146.85 14.116 146.85 14.956C146.85 15.772 146.814 16.48 146.742 17.08C146.67 17.656 146.514 18.172 146.274 18.628C146.61 18.628 147.162 18.604 147.93 18.556C148.986 18.508 149.718 18.484 150.126 18.484C150.534 18.484 150.894 18.592 151.206 18.808C151.518 19 151.674 19.276 151.674 19.636C151.674 20.14 151.566 20.512 151.35 20.752C151.134 20.992 150.822 21.148 150.414 21.22C149.43 21.484 148.038 21.64 146.238 21.688C146.19 22.624 146.166 23.644 146.166 24.748C146.166 26.596 146.274 28.012 146.49 28.996C146.634 29.764 146.874 30.328 147.21 30.688C147.57 31.024 148.098 31.192 148.794 31.192C149.154 31.192 149.442 31.144 149.658 31.048C149.898 30.952 150.03 30.892 150.054 30.868C150.342 30.7 150.606 30.616 150.846 30.616C151.182 30.616 151.422 30.724 151.566 30.94C151.734 31.156 151.818 31.444 151.818 31.804C151.818 32.476 151.458 33.04 150.738 33.496C150.018 33.928 149.094 34.144 147.966 34.144C146.694 34.144 145.614 33.772 144.726 33.028C143.862 32.26 143.346 31.252 143.178 30.004C142.938 28.876 142.818 27.292 142.818 25.252C142.818 24.364 142.866 23.176 142.962 21.688L141.234 21.544Z" fill="#333333"/>
<path d="M102.79 13C102.58 13 102.379 13.0891 102.231 13.2478C102.083 13.4065 102 13.6217 102 13.8462C102 14.0706 102.083 14.2858 102.231 14.4445C102.379 14.6032 102.58 14.6923 102.79 14.6923H104.249C104.428 14.6923 104.584 14.8209 104.631 15.0059L107.324 25.8277C106.478 26.0639 105.729 26.594 105.195 27.3351C104.66 28.0762 104.37 28.9864 104.369 29.9231C104.369 30.3902 104.723 30.7692 105.159 30.7692H121.745C121.955 30.7692 122.156 30.6801 122.304 30.5214C122.452 30.3627 122.535 30.1475 122.535 29.9231C122.535 29.6987 122.452 29.4834 122.304 29.3248C122.156 29.1661 121.955 29.0769 121.745 29.0769H106.084C106.247 28.5819 106.55 28.1533 106.95 27.8502C107.35 27.5471 107.828 27.3845 108.319 27.3846H120.132C120.28 27.3846 120.425 27.3401 120.551 27.2561C120.676 27.1721 120.777 27.0521 120.842 26.9096C122.044 24.2664 123.085 21.5424 123.959 18.755C123.994 18.6447 124.006 18.528 123.997 18.4121C123.988 18.2963 123.956 18.1837 123.904 18.0816C123.852 17.9794 123.781 17.8898 123.695 17.8183C123.61 17.7469 123.511 17.6951 123.406 17.6663C117.852 16.149 112.133 15.4368 106.402 15.5486L106.158 14.5705C106.046 14.12 105.798 13.7219 105.453 13.4379C105.108 13.1539 104.685 12.9999 104.249 13H102.79ZM104.369 33.3077C104.369 32.8589 104.536 32.4284 104.832 32.1111C105.128 31.7937 105.53 31.6154 105.949 31.6154C106.368 31.6154 106.77 31.7937 107.066 32.1111C107.362 32.4284 107.529 32.8589 107.529 33.3077C107.529 33.7565 107.362 34.187 107.066 34.5043C106.77 34.8217 106.368 35 105.949 35C105.53 35 105.128 34.8217 104.832 34.5043C104.536 34.187 104.369 33.7565 104.369 33.3077ZM117.796 33.3077C117.796 32.8589 117.963 32.4284 118.259 32.1111C118.555 31.7937 118.957 31.6154 119.376 31.6154C119.795 31.6154 120.197 31.7937 120.493 32.1111C120.789 32.4284 120.956 32.8589 120.956 33.3077C120.956 33.7565 120.789 34.187 120.493 34.5043C120.197 34.8217 119.795 35 119.376 35C118.957 35 118.555 34.8217 118.259 34.5043C117.963 34.187 117.796 33.7565 117.796 33.3077Z" fill="#333333"/>
</svg>
