<svg width="1426" height="83" viewBox="0 0 1426 83" fill="none" xmlns="http://www.w3.org/2000/svg">
<path fill-rule="evenodd" clip-rule="evenodd" d="M961.5 225.5C989 78.82 1237.5 46.7667 1195 79.5443C1086.18 163.528 927.922 132.048 935.5 215C943.197 299.327 554.981 249.881 434.5 250C337.241 250.095 -345 240.5 226 71.9999C108.138 -1.66488 487 91.9999 519.5 44.9999C544.93 -36.1101 1203.5 177 1266.5 120.5C1347.5 133.5 1162 149.5 1206 136.5C1450.5 196.5 1708.29 -36.8502 1761.5 -37.5001C1791.17 -37.8606 1429.5 -68.0002 1555.5 -37.5001C1408.5 137.5 998.809 26.5 961.5 225.5Z" fill="#9CC29B" fill-opacity="0.4"/>
</svg>
