<svg width="60" height="60" viewBox="0 0 60 60" fill="none" xmlns="http://www.w3.org/2000/svg">
<path d="M26.25 3.75H20.625C19.1332 3.75 17.7024 4.34263 16.6475 5.39752C15.5926 6.45242 15 7.88316 15 9.375V50.625C15 52.1168 15.5926 53.5476 16.6475 54.6025C17.7024 55.6574 19.1332 56.25 20.625 56.25H39.375C40.8668 56.25 42.2976 55.6574 43.3525 54.6025C44.4074 53.5476 45 52.1168 45 50.625V9.375C45 7.88316 44.4074 6.45242 43.3525 5.39752C42.2976 4.34263 40.8668 3.75 39.375 3.75H33.75M26.25 3.75V7.5H33.75V3.75M26.25 3.75H33.75M26.25 50.625H33.75" stroke="#6F8A6E" stroke-width="4" stroke-linecap="round" stroke-linejoin="round"/>
<path d="M29.25 40C29.25 40.4142 29.5858 40.75 30 40.75C30.4142 40.75 30.75 40.4142 30.75 40L29.25 40ZM30.5303 19.4697C30.2374 19.1768 29.7626 19.1768 29.4697 19.4697L24.6967 24.2426C24.4038 24.5355 24.4038 25.0104 24.6967 25.3033C24.9896 25.5962 25.4645 25.5962 25.7574 25.3033L30 21.0607L34.2426 25.3033C34.5355 25.5962 35.0104 25.5962 35.3033 25.3033C35.5962 25.0104 35.5962 24.5355 35.3033 24.2426L30.5303 19.4697ZM30.75 40L30.75 20L29.25 20L29.25 40L30.75 40Z" fill="#6F8A6E"/>
</svg>
