<svg width="26" height="26" viewBox="0 0 26 26" fill="none" xmlns="http://www.w3.org/2000/svg">
<path fill-rule="evenodd" clip-rule="evenodd" d="M13 23C18.5228 23 23 18.5228 23 13C23 7.47715 18.5228 3 13 3C7.47715 3 3 7.47715 3 13C3 18.5228 7.47715 23 13 23ZM13.9375 8.9375C13.9375 8.41973 13.5178 8 13 8C12.4822 8 12.0625 8.41973 12.0625 8.9375V12.0625H8.9375C8.41973 12.0625 8 12.4822 8 13C8 13.5178 8.41973 13.9375 8.9375 13.9375H12.0625V17.0625C12.0625 17.5803 12.4822 18 13 18C13.5178 18 13.9375 17.5803 13.9375 17.0625V13.9375H17.0625C17.5803 13.9375 18 13.5178 18 13C18 12.4822 17.5803 12.0625 17.0625 12.0625H13.9375V8.9375Z" fill="#FBFCFD"/>
</svg>
