<svg width="68" height="72" viewBox="0 0 68 72" fill="none" xmlns="http://www.w3.org/2000/svg">
<g clip-path="url(#clip0_1185_55390)">
<path d="M23.2548 39.243L23.1498 39.138C22.6948 38.683 22.6948 37.948 23.1498 37.493L30.2548 30.3763C30.7098 29.9213 31.4448 29.9213 31.8998 30.3763L35.7382 34.2146L43.1932 25.838C43.6365 25.3363 44.4182 25.3246 44.8848 25.7913C45.3165 26.2346 45.3398 26.9346 44.9315 27.3896L36.5665 36.8046C36.1232 37.3063 35.3532 37.3296 34.8748 36.8513L31.0832 33.0596L24.8998 39.243C24.4565 39.698 23.7098 39.698 23.2548 39.243ZM24.8998 46.243L31.0832 40.0596L34.8748 43.8513C35.3532 44.3296 36.1232 44.3063 36.5665 43.8046L44.9315 34.3896C45.3398 33.9346 45.3165 33.2346 44.8848 32.7913C44.4182 32.3246 43.6365 32.3363 43.1932 32.838L35.7382 41.2146L31.8998 37.3763C31.4448 36.9213 30.7098 36.9213 30.2548 37.3763L23.1498 44.493C22.6948 44.948 22.6948 45.683 23.1498 46.138L23.2548 46.243C23.7098 46.698 24.4565 46.698 24.8998 46.243Z" fill="#FBFCFD"/>
</g>
<defs>
<clipPath id="clip0_1185_55390">
<rect width="28" height="28" fill="white" transform="translate(20 22)"/>
</clipPath>
</defs>
</svg>
