<svg width="60" height="60" viewBox="0 0 60 60" fill="none" xmlns="http://www.w3.org/2000/svg">
<path d="M39.3751 26.25V15C39.3751 12.5136 38.3874 10.129 36.6292 8.37087C34.8711 6.61272 32.4865 5.625 30.0001 5.625C27.5137 5.625 25.1291 6.61272 23.371 8.37087C21.6128 10.129 20.6251 12.5136 20.6251 15V26.25M49.0151 21.2675L52.1726 51.2675C52.3476 52.93 51.0476 54.375 49.3751 54.375H10.6251C10.2306 54.3754 9.84045 54.2929 9.47996 54.1327C9.11947 53.9725 8.79671 53.7382 8.53264 53.4452C8.26858 53.1521 8.06912 52.8068 7.94722 52.4316C7.82532 52.0564 7.78371 51.6598 7.82508 51.2675L10.9851 21.2675C11.058 20.5764 11.3841 19.9368 11.9007 19.4719C12.4173 19.007 13.0877 18.7499 13.7826 18.75H46.2176C47.6576 18.75 48.8651 19.8375 49.0151 21.2675ZM21.5626 26.25C21.5626 26.4986 21.4638 26.7371 21.288 26.9129C21.1122 27.0887 20.8737 27.1875 20.6251 27.1875C20.3764 27.1875 20.138 27.0887 19.9622 26.9129C19.7864 26.7371 19.6876 26.4986 19.6876 26.25C19.6876 26.0014 19.7864 25.7629 19.9622 25.5871C20.138 25.4113 20.3764 25.3125 20.6251 25.3125C20.8737 25.3125 21.1122 25.4113 21.288 25.5871C21.4638 25.7629 21.5626 26.0014 21.5626 26.25V26.25ZM40.3126 26.25C40.3126 26.4986 40.2138 26.7371 40.038 26.9129C39.8622 27.0887 39.6237 27.1875 39.3751 27.1875C39.1264 27.1875 38.888 27.0887 38.7122 26.9129C38.5364 26.7371 38.4376 26.4986 38.4376 26.25C38.4376 26.0014 38.5364 25.7629 38.7122 25.5871C38.888 25.4113 39.1264 25.3125 39.3751 25.3125C39.6237 25.3125 39.8622 25.4113 40.038 25.5871C40.2138 25.7629 40.3126 26.0014 40.3126 26.25V26.25Z" stroke="#6F8A6E" stroke-width="4" stroke-linecap="round" stroke-linejoin="round"/>
</svg>
